<?xml version="1.0" standalone="no"?>
<!DOCTYPE svg PUBLIC "-//W3C//DTD SVG 20010904//EN"
 "http://www.w3.org/TR/2001/REC-SVG-20010904/DTD/svg10.dtd">
<svg version="1.0" xmlns="http://www.w3.org/2000/svg"
 width="2000.000000pt" height="2000.000000pt" viewBox="0 0 2000.000000 2000.000000"
 preserveAspectRatio="xMidYMid meet">

<g transform="translate(0.000000,2000.000000) scale(0.100000,-0.100000)"
fill="#000000" stroke="none">
<path d="M9415 15083 c-11 -3 -77 -23 -148 -44 l-127 -39 -63 17 c-122 34
-547 18 -534 -20 2 -7 30 -20 63 -30 80 -25 109 -39 69 -33 -17 3 -105 10
-197 17 -187 14 -356 4 -533 -32 -172 -35 -266 -83 -443 -226 -120 -98 -195
-181 -291 -322 -65 -95 -86 -119 -119 -134 -46 -20 -99 -75 -108 -112 -5 -21
5 -64 31 -127 6 -16 0 -18 -56 -18 -35 0 -106 9 -158 20 -51 11 -97 17 -102
14 -26 -16 4 -76 89 -181 24 -30 30 -44 21 -47 -172 -47 -232 -76 -227 -110 2
-15 18 -27 56 -42 l54 -21 -36 -22 c-109 -68 -337 -412 -422 -639 -29 -76 -29
-74 -1 -70 18 2 22 9 20 33 -2 20 0 24 5 13 6 -14 17 -10 72 32 84 64 117 68
65 8 -45 -53 -80 -125 -101 -208 -13 -52 -16 -95 -11 -220 6 -179 19 -251 88
-503 27 -100 65 -257 84 -348 18 -91 45 -195 60 -231 26 -64 26 -67 9 -93 -33
-50 0 -207 87 -411 21 -50 55 -151 75 -225 20 -74 65 -241 100 -371 35 -131
64 -240 64 -243 0 -4 -25 -3 -56 1 -124 15 -245 -56 -303 -179 -49 -103 -62
-169 -68 -337 -5 -145 -3 -166 26 -325 18 -93 45 -222 61 -286 17 -64 45 -183
64 -265 39 -171 141 -486 192 -591 19 -39 53 -90 77 -113 74 -74 203 -125 293
-118 32 3 58 0 63 -6 5 -6 74 -139 153 -296 79 -157 166 -319 193 -360 46 -69
187 -259 305 -408 l50 -63 0 -98 c0 -54 -3 -159 -6 -233 l-7 -136 -46 21
c-101 47 -334 19 -1026 -122 -389 -80 -724 -153 -1055 -231 -91 -22 -228 -53
-305 -70 -77 -17 -148 -33 -159 -36 -13 -4 -16 -2 -11 6 10 16 -66 4 -110 -16
-86 -40 -164 -292 -184 -591 l-9 -133 -47 -57 c-76 -92 -109 -172 -114 -273
-4 -107 11 -177 52 -232 31 -40 32 -45 20 -78 -17 -49 -16 -138 2 -192 30 -86
125 -163 243 -194 37 -9 70 -20 75 -24 4 -3 -151 -109 -345 -236 -194 -126
-462 -302 -595 -391 -133 -90 -245 -163 -248 -163 -3 0 -5 8 -5 17 0 11 -3 13
-9 7 -64 -66 -253 -1215 -316 -1924 -8 -96 -27 -290 -40 -430 -40 -407 -75
-828 -75 -897 0 -47 3 -63 14 -63 11 0 16 22 21 88 3 48 26 290 51 537 25 248
54 547 64 665 29 315 57 556 90 773 16 106 41 278 55 382 14 105 48 303 75
440 27 138 52 270 55 295 10 68 15 80 30 73 8 -3 97 50 207 123 106 70 247
162 313 204 119 76 196 126 470 305 77 50 158 101 180 114 39 22 36 18 -34
-37 -19 -15 -63 -51 -97 -79 -33 -29 -66 -53 -72 -53 -6 0 -12 -3 -14 -7 -3
-8 -69 -58 -253 -194 -89 -65 -273 -190 -498 -338 -43 -28 -82 -49 -87 -46 -4
3 -34 -10 -66 -28 l-59 -33 -7 -59 c-4 -33 -14 -141 -23 -240 -9 -99 -24 -227
-34 -285 -11 -58 -26 -152 -35 -210 -15 -99 -19 -143 -30 -320 -9 -132 -36
-434 -41 -458 -7 -29 -23 -240 -31 -396 -3 -66 -9 -170 -14 -231 -31 -391 -58
-752 -67 -882 l-6 -103 957 0 956 0 -5 53 c-15 148 -45 554 -47 625 -2 96 2
102 101 161 104 62 204 79 357 61 114 -14 162 -28 96 -29 -48 -1 -208 -26
-293 -46 -65 -15 -149 -57 -191 -97 l-29 -27 6 -218 c3 -120 13 -278 22 -350
l16 -133 835 0 834 0 -6 38 c-18 115 -27 241 -41 547 -8 187 -19 410 -25 495
-5 85 -7 156 -5 158 8 8 26 -75 50 -233 27 -184 44 -436 45 -665 0 -80 3 -189
7 -242 l6 -98 574 0 575 0 -9 452 c-13 748 -10 1205 11 1407 33 321 28 385
-44 551 -17 41 -43 109 -57 150 -39 119 -122 279 -172 334 l-46 49 35 -8 c74
-16 140 -84 205 -210 25 -49 56 -119 69 -155 13 -36 37 -99 54 -140 48 -118
67 -390 42 -610 -19 -175 -22 -300 -25 -895 -1 -335 -6 -681 -10 -768 l-8
-157 326 0 c292 0 327 2 327 16 0 21 -29 263 -36 295 -4 24 -3 25 31 21 43 -5
119 30 142 65 9 13 24 23 34 23 43 0 35 43 -16 80 -28 21 -34 31 -35 62 0 44
-14 78 -54 136 -17 24 -38 67 -46 95 -12 39 -24 57 -50 74 -39 24 -47 32 -90
84 -24 29 -35 63 -65 200 -105 483 -245 950 -365 1224 -40 92 -61 226 -64 405
-2 91 -10 228 -17 305 -13 131 -17 461 -5 490 4 10 18 8 68 -10 148 -53 287
-79 838 -156 308 -42 630 -42 919 1 75 11 199 29 276 40 198 28 227 36 350 95
61 29 144 65 186 79 42 14 107 40 145 57 60 27 225 89 237 89 2 0 -7 -47 -20
-105 -101 -451 -157 -1002 -152 -1495 1 -140 1 -298 0 -350 l-1 -95 -22 35
c-12 19 -37 59 -57 89 -20 29 -40 60 -46 69 -5 8 -27 33 -47 55 -21 22 -38 44
-38 49 0 4 -5 8 -11 8 -6 0 -22 14 -36 30 -13 17 -29 30 -34 30 -6 0 -20 10
-33 23 -13 13 -37 29 -55 36 -17 8 -31 18 -31 23 0 5 -4 6 -10 3 -5 -3 -10 -2
-10 3 0 6 -14 15 -30 21 -30 10 -31 11 -15 35 12 18 17 47 16 102 -1 90 -30
155 -86 191 -82 54 -200 7 -226 -90 -10 -36 -3 -99 15 -147 5 -12 -6 -15 -66
-16 -113 -2 -200 -15 -375 -59 -185 -47 -336 -124 -447 -230 l-49 -46 -58 25
c-130 59 -233 52 -311 -22 -53 -49 -42 -141 23 -194 29 -23 48 -29 105 -34 96
-8 98 -9 80 -36 -32 -51 -86 -201 -96 -266 -5 -38 -21 -91 -35 -118 -26 -51
-45 -138 -45 -210 0 -25 -6 -47 -15 -54 -21 -18 -19 -36 8 -62 13 -13 35 -43
49 -68 14 -25 40 -61 57 -80 33 -37 48 -91 75 -258 8 -51 18 -98 22 -104 4 -7
3 -8 -4 -4 -6 4 -22 -6 -36 -21 -13 -15 -38 -44 -55 -63 -110 -124 -154 -246
-116 -320 20 -38 43 -50 97 -50 35 0 51 7 83 35 22 19 44 35 48 35 5 0 6 4 2
9 -3 5 -1 12 4 15 5 3 12 -16 16 -44 6 -47 9 -50 36 -50 28 0 30 2 25 32 -3
18 -15 119 -26 223 -20 182 -58 403 -80 460 -16 43 -12 45 38 22 39 -18 66
-22 162 -22 105 0 120 2 170 27 39 19 73 49 118 100 78 91 106 161 97 235 -3
29 -10 55 -15 58 -5 3 0 21 12 40 l20 35 -38 38 c-22 21 -64 65 -94 98 -43 47
-69 66 -115 83 -83 32 -194 26 -324 -18 -52 -17 -96 -30 -98 -27 -8 8 56 185
97 268 60 120 140 238 168 245 14 3 21 11 18 19 -7 18 94 107 169 149 69 38
246 99 344 117 41 8 154 13 301 13 l235 0 76 -37 c98 -48 178 -109 266 -201
79 -84 109 -125 182 -252 l51 -89 0 -141 c0 -285 30 -661 91 -1143 21 -173 39
-318 39 -323 0 -5 42 -9 93 -9 l93 0 -43 193 c-47 213 -85 428 -108 617 -16
125 -33 720 -21 709 3 -3 10 -104 16 -225 15 -352 47 -632 110 -954 15 -80 35
-189 45 -242 l17 -98 1257 0 1258 0 12 108 c16 149 30 390 32 562 l1 145 15
-60 c23 -96 29 -444 9 -585 -9 -63 -19 -127 -22 -143 l-6 -27 1021 0 c561 0
1021 2 1021 4 0 3 -22 96 -49 208 -148 610 -261 1132 -311 1430 -17 105 -70
343 -119 540 -114 452 -181 737 -181 768 0 14 -26 133 -59 265 -33 132 -75
303 -94 380 -43 173 -164 526 -208 603 -42 74 -144 208 -188 247 -19 16 -44
39 -55 50 -32 31 -94 75 -104 75 -5 0 -15 7 -23 16 -17 20 -105 65 -144 73
-21 5 -31 13 -33 29 -2 12 1 22 6 22 20 0 199 -73 252 -102 30 -17 73 -45 95
-62 21 -17 44 -31 50 -31 32 0 168 -261 267 -515 175 -447 275 -791 533 -1835
229 -929 303 -1241 478 -2015 30 -132 35 -145 56 -148 20 -3 22 0 17 25 -144
714 -558 2435 -752 3128 -133 476 -308 954 -440 1200 -107 201 -201 277 -438
356 l-99 32 39 31 c140 109 302 297 358 416 30 62 31 71 31 190 0 107 -4 132
-22 172 -55 119 -194 221 -468 343 -142 63 -327 121 -690 215 -88 23 -237 63
-331 90 -308 87 -1088 274 -1384 331 -113 22 -261 51 -330 64 -141 27 -320 76
-320 86 0 4 24 43 54 86 143 208 211 337 336 643 44 106 185 471 203 521 4 14
13 15 49 8 109 -21 281 -3 360 37 55 28 140 110 189 182 37 54 121 227 149
307 88 244 176 566 216 790 28 155 25 334 -8 462 -34 131 -76 218 -139 287
-71 78 -108 99 -180 100 -32 1 -59 2 -59 4 0 1 18 55 41 120 118 342 276 931
314 1172 23 149 30 366 16 486 -34 280 -128 554 -244 710 l-45 62 -1 123 c-1
91 -7 143 -22 199 -38 141 -158 358 -283 515 -114 143 -289 296 -405 354 -95
49 -250 101 -299 101 -14 0 -53 26 -101 68 -227 197 -387 305 -581 391 -135
60 -154 70 -214 115 -33 25 -108 88 -167 141 -123 111 -218 188 -304 247 -99
68 -187 120 -193 113 -3 -3 -1 -19 5 -35 l11 -30 -43 25 c-23 14 -82 39 -131
56 -148 51 -421 61 -609 23 -67 -13 -73 -13 -110 6 -39 20 -61 22 -100 13z
m784 -89 c39 -11 66 -29 100 -62 48 -50 145 -205 139 -223 -2 -6 -25 22 -52
62 -102 153 -168 203 -285 216 -34 3 -64 10 -67 14 -9 15 110 10 165 -7z
m-2904 -714 c-3 -5 -13 -10 -21 -10 -8 0 -14 5 -14 10 0 6 9 10 21 10 11 0 17
-4 14 -10z m5120 -749 c63 -41 85 -60 167 -144 62 -62 88 -99 128 -179 27 -55
50 -107 50 -116 0 -9 -18 19 -39 62 -77 152 -203 289 -367 397 -35 24 -64 44
-64 46 0 5 81 -37 125 -66z m-813 -1063 c107 -101 265 -352 354 -561 58 -137
130 -350 149 -437 23 -112 103 -588 125 -750 11 -85 39 -246 61 -358 71 -363
91 -557 93 -877 l1 -280 -52 -175 c-31 -106 -54 -204 -58 -250 -15 -188 -36
-310 -55 -310 -11 0 -30 -57 -30 -92 0 -44 -16 -65 -57 -79 -21 -6 -44 -18
-52 -26 -18 -19 -61 -9 -83 20 l-17 22 -59 -61 c-135 -138 -290 -243 -362
-244 -19 0 -47 -6 -61 -14 -14 -7 -40 -11 -58 -8 -27 4 -32 2 -29 -14 2 -15
-4 -20 -34 -22 -31 -3 -38 -7 -38 -25 0 -47 -22 3 -30 68 -6 50 -13 71 -27 78
-10 6 -52 46 -93 91 -166 180 -257 264 -318 295 -88 45 -213 78 -375 100 -271
38 -443 36 -563 -5 -133 -45 -157 -109 -123 -339 18 -128 25 -161 43 -205 5
-13 -9 -15 -104 -12 l-110 3 20 29 c29 41 77 149 85 192 10 55 -12 142 -48
190 -38 49 -137 104 -216 118 -130 24 -346 8 -531 -40 -343 -88 -484 -178
-725 -465 -37 -44 -74 -84 -81 -88 -10 -6 -14 -34 -14 -105 l-1 -97 -49 55
c-71 78 -169 218 -212 303 -76 145 -133 361 -181 677 -72 466 -78 543 -80 949
-2 280 1 339 16 416 21 102 10 91 167 170 100 51 176 85 187 85 5 0 19 -23 32
-50 26 -54 69 -97 113 -112 16 -6 28 -13 27 -16 0 -4 -67 -56 -149 -116 -135
-100 -147 -111 -130 -123 14 -10 35 -11 90 -4 73 9 100 7 100 -10 0 -5 6 -9
13 -9 8 0 22 -8 31 -19 9 -10 38 -27 64 -37 l47 -19 -90 -6 c-105 -7 -155 -17
-155 -30 0 -6 8 -8 19 -4 34 11 345 7 421 -5 76 -12 184 -8 270 11 55 12 389
117 411 129 10 5 33 3 60 -6 34 -12 68 -14 159 -9 92 6 118 5 127 -6 20 -25
36 -159 29 -238 -7 -72 -39 -191 -56 -201 -4 -3 -10 -15 -14 -27 -6 -20 -5
-21 22 -14 16 5 38 14 49 19 27 15 72 82 90 134 51 145 5 431 -107 665 -58
121 -121 207 -190 258 l-50 37 17 31 c12 22 17 56 17 112 1 69 -4 89 -31 145
-17 36 -44 79 -61 97 -34 37 -47 38 -262 22 -390 -28 -727 -108 -990 -236
-128 -62 -187 -99 -242 -151 l-38 -36 0 79 c0 173 46 373 126 541 31 65 78
175 105 244 46 119 143 295 212 387 36 47 45 50 243 79 l120 18 112 -38 c62
-20 118 -33 125 -29 6 4 26 6 43 4 48 -4 240 33 409 79 110 30 211 49 380 70
127 16 284 39 350 50 l120 20 125 129 c69 71 147 141 173 156 85 49 448 123
702 144 55 5 211 9 346 10 l246 1 45 -42z m1427 -182 c126 -250 131 -737 16
-1471 -13 -85 -29 -173 -35 -197 -12 -42 -100 -221 -107 -215 -2 2 10 33 26
68 49 108 61 156 86 333 77 543 89 689 82 951 -8 298 -37 435 -124 579 -20 33
-43 72 -52 86 -11 19 -4 15 26 -13 23 -22 59 -74 82 -121z m-5543 -620 c-53
-81 -77 -154 -156 -471 -32 -130 -54 -184 -44 -109 19 144 93 453 120 506 19
36 73 98 86 98 6 0 3 -11 -6 -24z m414 -990 c0 -2 -45 -36 -99 -75 -130 -93
-169 -139 -247 -299 -68 -139 -98 -177 -43 -56 92 205 107 231 179 297 63 58
210 151 210 133z m1069 -575 l108 -109 -36 -10 c-20 -6 -84 -26 -142 -45
l-107 -34 13 31 c15 36 35 167 35 232 0 24 5 44 11 44 6 0 59 -49 118 -109z
m-683 -34 c0 -69 18 -113 67 -164 27 -29 29 -33 11 -33 -33 0 -163 39 -213 65
-43 21 -80 52 -70 58 2 1 26 13 54 27 35 18 150 101 150 109 0 1 0 -27 1 -62z
m438 41 c22 -31 20 -47 -9 -91 -41 -60 -85 -42 -85 35 0 43 25 78 55 78 13 0
31 -10 39 -22z m-1901 -39 c36 -10 107 -62 107 -79 0 -4 -28 4 -62 17 -48 20
-80 26 -140 26 l-77 0 -49 -50 c-39 -39 -51 -62 -66 -114 -19 -74 -65 -159
-66 -123 0 11 7 45 16 75 57 193 189 290 337 248z m-116 -265 c90 -68 151
-279 213 -739 23 -164 38 -239 74 -360 38 -132 39 -144 12 -156 -20 -9 -33 -7
-72 12 -111 56 -201 174 -223 293 -14 78 -14 208 1 241 11 25 83 76 126 89 38
12 13 28 -32 21 -61 -11 -113 -41 -132 -78 -10 -17 -19 -65 -22 -105 -4 -69
-6 -72 -23 -57 -10 10 -29 15 -45 13 -26 -3 -28 0 -44 62 -31 122 -31 127 -8
126 45 -2 59 105 33 241 -26 133 -30 249 -11 323 18 70 44 112 31 50 -14 -65
-9 -222 10 -285 9 -33 21 -64 25 -68 4 -5 11 69 15 165 6 157 17 238 32 238 4
0 21 -12 40 -26z m6301 -57 c13 -13 27 -39 32 -58 17 -60 9 -389 -10 -389 -4
0 -22 28 -41 62 -60 108 -98 133 -145 97 -6 -5 -14 -6 -17 -2 -4 3 -20 6 -36
5 l-29 -1 20 67 c29 99 65 167 109 207 47 42 85 46 117 12z m-5628 -584 c25
-325 39 -420 97 -613 81 -274 132 -455 128 -458 -2 -2 -35 62 -75 142 -47 96
-86 194 -115 291 -67 225 -79 307 -80 545 0 191 11 368 22 357 2 -3 13 -121
23 -264z m5485 241 c42 -17 76 -53 109 -114 31 -56 40 -127 54 -395 l7 -150
19 50 c17 46 103 205 111 205 8 0 -71 -276 -121 -423 -114 -334 -231 -517
-367 -577 -56 -25 -357 -60 -357 -42 0 28 44 138 76 193 22 36 57 113 79 171
l40 105 90 6 c123 8 149 19 227 97 110 111 161 237 162 400 1 86 -2 100 -29
155 -43 85 -88 118 -172 123 l-66 5 6 86 c3 47 8 94 12 103 12 29 53 30 120 2z
m-2 -260 c15 -10 39 -44 54 -74 25 -49 28 -65 27 -145 -2 -134 -42 -242 -124
-330 -21 -22 -40 -52 -44 -67 -8 -34 -47 -48 -159 -55 l-88 -6 6 39 c4 21 15
64 25 94 21 61 92 301 110 368 6 24 25 79 42 124 l31 80 47 -4 c26 -3 59 -13
73 -24z m-5738 -291 c-9 -76 -20 -177 -24 -225 -3 -48 -10 -90 -14 -94 -21
-21 1 238 34 409 20 98 21 56 4 -90z m-87 -76 l-3 -62 -17 70 c-9 39 -19 88
-23 110 l-6 40 26 -48 c21 -40 25 -59 23 -110z m42 -462 c0 -8 -15 -17 -37
-21 -21 -4 -46 -11 -56 -16 -10 -5 -21 -8 -23 -5 -7 7 99 66 108 61 4 -3 8
-11 8 -19z m29 -112 c41 -144 44 -154 36 -161 -4 -4 -37 -6 -73 -5 -72 1 -159
28 -175 54 -17 28 2 91 38 125 26 24 101 57 146 63 3 1 16 -34 28 -76z m-224
1 c-14 -26 -25 -56 -25 -66 0 -11 -4 -16 -10 -13 -5 3 -10 21 -10 40 0 26 7
39 33 59 17 14 33 26 34 26 1 0 -9 -21 -22 -46z m4371 -137 c3 -20 -7 -22 -24
-5 -17 17 -15 27 5 24 9 -2 17 -10 19 -19z m-1326 -137 l45 -40 -110 6 c-130
8 -249 -6 -424 -47 -68 -16 -126 -29 -130 -29 -12 1 33 30 47 30 23 0 144 51
187 79 41 27 44 27 305 39 28 1 44 -7 80 -38z m180 -92 c30 -13 17 -15 -181
-36 -176 -18 -231 -20 -309 -12 -52 5 -124 10 -160 11 l-65 1 55 14 c152 39
203 43 416 39 144 -3 222 -8 244 -17z m165 -33 c48 -8 146 -14 245 -15 164 0
317 -18 370 -43 60 -29 47 -213 -25 -366 -20 -42 -45 -109 -56 -149 -27 -104
-82 -203 -160 -285 l-68 -72 -1 33 c0 24 -4 32 -18 32 -10 0 -22 -4 -28 -9 -5
-6 -33 -11 -61 -12 -39 -2 -58 2 -72 15 -11 10 -26 16 -33 13 -7 -2 -35 13
-62 34 -56 45 -68 48 -64 17 2 -16 -4 -26 -18 -32 -17 -8 -21 -18 -20 -47 0
-21 -4 -43 -9 -48 -16 -15 -185 9 -217 31 -14 10 -33 18 -41 18 -16 0 -62 55
-76 92 -6 16 -5 32 4 48 12 22 14 23 20 8 10 -26 26 -22 20 5 -4 15 1 32 13
47 18 23 26 25 98 24 l79 -1 34 -66 c26 -49 41 -67 60 -70 14 -3 27 -4 29 -3
1 2 -9 33 -23 70 -15 40 -25 87 -25 120 0 48 2 53 23 52 21 -1 22 2 20 70 -2
62 -11 99 -41 157 -2 4 11 7 30 8 60 2 -66 35 -180 48 -141 15 -451 14 -529
-3 -56 -11 -63 -11 -63 3 0 21 -63 -56 -72 -88 -4 -14 -18 -57 -31 -96 -14
-38 -30 -101 -37 -140 -20 -117 -5 -160 41 -114 l22 22 -7 -24 c-19 -67 -19
-80 2 -102 11 -12 23 -32 27 -44 5 -19 2 -23 -15 -23 -11 0 -36 6 -55 14 -31
13 -40 13 -87 -4 -37 -13 -67 -17 -101 -13 -35 4 -51 2 -57 -7 -6 -10 -23 -6
-73 18 -85 39 -119 63 -211 146 -87 78 -176 203 -207 292 -21 61 -36 204 -25
247 4 17 20 31 55 46 80 34 302 91 351 89 25 -1 97 5 159 12 124 14 450 9 571
-10 109 -16 425 20 475 55 25 17 24 17 120 0z m-535 -777 c0 -25 29 -68 46
-68 8 0 14 -6 14 -13 0 -20 -22 -37 -47 -37 -19 0 -29 11 -48 53 -29 62 -32
94 -7 99 23 6 42 -10 42 -34z m-80 -4 c0 -37 -15 -74 -29 -74 -16 0 -21 32
-11 71 14 51 40 53 40 3z m-98 -29 c11 -38 12 -55 4 -52 -16 5 -36 48 -36 80
0 45 16 31 32 -28z m269 38 c0 -5 2 -17 4 -28 4 -20 4 -20 -11 -1 -8 11 -14
23 -14 28 0 10 20 11 21 1z m-323 -81 c4 -36 -3 -39 -30 -15 -21 19 -23 39 -5
46 22 9 32 1 35 -31z m-68 -17 c0 -8 -7 -15 -15 -15 -16 0 -20 12 -8 23 11 12
23 8 23 -8z m1980 -398 c0 -2 -10 -12 -22 -23 l-23 -19 19 23 c18 21 26 27 26
19z m-127 -513 c47 -133 102 -354 124 -496 25 -159 25 -519 -1 -673 -24 -148
-60 -300 -97 -413 -30 -91 -32 -93 -109 -160 -175 -151 -308 -231 -542 -326
-166 -68 -227 -82 -384 -90 -264 -14 -975 36 -1299 90 -155 26 -325 73 -470
131 -77 30 -145 60 -152 67 -16 15 -43 355 -43 546 0 80 -5 243 -10 362 -9
199 -8 232 10 374 12 86 25 167 31 180 13 37 65 54 162 54 56 0 99 6 128 17
35 13 77 17 199 17 152 0 157 0 260 -36 58 -20 129 -39 158 -42 29 -3 69 -10
90 -15 140 -38 491 -43 665 -10 246 46 612 145 647 174 8 7 67 39 130 70 123
61 197 109 355 228 66 50 102 72 107 64 3 -7 22 -58 41 -113z m2992 -15 c214
-54 379 -112 520 -179 63 -31 89 -50 117 -88 64 -84 99 -193 97 -306 l0 -51
-20 78 c-28 116 -65 183 -139 257 -108 108 -305 193 -517 225 -157 23 -225 21
-261 -10 -16 -13 -35 -39 -42 -57 -7 -18 -20 -41 -28 -50 -8 -9 -11 -22 -7
-28 3 -6 2 -9 -4 -8 -5 2 -38 -38 -73 -89 -82 -120 -240 -324 -246 -318 -3 2
8 21 24 41 135 170 162 216 239 404 34 85 57 126 87 157 61 62 88 65 253 22z
m-9170 -349 c-3 -10 -8 -50 -10 -87 -17 -256 -31 -337 -65 -368 -19 -17 -20
-17 -20 1 0 74 67 434 86 466 10 15 15 8 9 -12z m676 -160 c94 -17 341 -152
388 -212 12 -15 38 -32 59 -39 67 -21 168 -77 238 -130 38 -29 104 -74 147
-101 167 -103 334 -263 482 -463 188 -255 259 -351 283 -385 25 -35 164 -178
557 -574 208 -208 289 -306 354 -430 24 -46 28 -61 19 -68 -15 -9 -8 -16 -128
138 -46 60 -184 209 -305 331 -406 408 -550 559 -595 623 -25 35 -80 113 -122
174 -42 61 -82 116 -87 123 -6 6 -27 37 -47 70 -67 103 -328 349 -434 407 -19
11 -70 47 -113 80 -134 103 -180 135 -247 172 -36 19 -101 57 -145 85 -115 72
-252 136 -331 155 -66 15 -156 15 -249 -2 -29 -5 -29 -5 5 11 89 42 175 53
271 35z m5817 -124 c206 -39 335 -92 424 -176 46 -44 49 -49 21 -35 -79 38
-243 92 -353 115 -209 45 -210 46 -210 92 0 23 4 28 18 24 9 -3 55 -12 100
-20z m-3829 -158 c-3 -160 8 -232 58 -387 61 -188 124 -316 287 -583 22 -37
46 -63 68 -72 33 -15 46 -23 100 -59 16 -10 65 -29 110 -41 46 -13 105 -33
132 -45 68 -30 284 -87 418 -111 449 -79 1214 -119 1480 -79 168 26 443 142
611 257 112 77 115 77 37 3 -202 -192 -446 -308 -775 -367 -115 -21 -430 -23
-620 -4 -374 36 -651 72 -745 94 -36 8 -101 24 -145 34 -44 11 -123 35 -175
54 -52 19 -115 38 -140 42 -25 4 -63 15 -85 25 -22 10 -70 32 -106 49 -44 19
-76 42 -95 67 -16 21 -42 53 -59 73 -16 19 -30 40 -31 46 -1 7 -43 75 -94 152
-123 186 -171 283 -224 461 -50 166 -62 260 -51 407 7 86 9 96 27 96 18 0 19
-7 17 -112z m-2427 30 l53 -11 -70 -17 c-38 -9 -86 -25 -105 -34 -113 -59
-258 -194 -280 -262 -8 -24 -10 -60 -6 -103 4 -36 8 -80 10 -96 1 -17 9 -45
18 -62 15 -29 14 -32 -8 -58 l-23 -28 -33 69 c-87 187 -26 345 213 546 75 64
133 78 231 56z m8 -513 c0 -3 -21 -15 -47 -26 -135 -57 -253 -134 -253 -165 0
-26 -24 -48 -44 -41 -37 15 -59 -67 -35 -130 22 -59 90 -131 157 -168 54 -30
80 -38 141 -42 65 -5 72 -8 56 -20 -26 -18 -68 -16 -158 6 -126 33 -188 74
-228 153 -28 54 -26 149 5 214 24 52 108 134 137 134 22 0 31 11 19 25 -8 9 2
18 37 33 27 11 57 22 68 25 28 7 145 8 145 2z m75 -605 c3 -5 -3 -10 -15 -10
-12 0 -18 5 -15 10 3 6 10 10 15 10 5 0 12 -4 15 -10z m9278 -762 c-100 -229
-183 -526 -225 -808 -19 -131 -23 -194 -22 -415 0 -263 2 -289 53 -635 34
-233 35 -243 20 -238 -15 5 -16 8 -59 233 -49 262 -60 360 -66 575 -11 395 53
762 192 1105 53 128 135 285 149 285 2 0 -17 -46 -42 -102z m-6360 -329 c4
-16 3 -18 -9 -8 -16 13 -19 29 -5 29 5 0 11 -9 14 -21z m-1788 -624 c-14 -143
-27 -269 -30 -280 -2 -11 -9 -119 -15 -240 -12 -238 -4 -457 27 -726 15 -137
13 -195 -6 -173 -4 5 -15 63 -25 129 -13 97 -16 205 -16 570 1 539 8 657 51
902 29 163 34 181 37 133 2 -30 -8 -172 -23 -315z m4291 70 c53 -22 78 -86 72
-182 -3 -40 -7 -76 -11 -79 -3 -3 -24 0 -47 6 -37 10 -41 14 -35 33 19 61 19
70 -1 59 -15 -8 -21 -5 -36 19 -26 43 -42 37 -35 -13 2 -24 8 -51 12 -60 8
-19 -2 -23 -23 -9 -28 17 -42 153 -21 192 9 18 59 47 82 49 4 0 23 -7 43 -15z
m-1191 -556 l64 -30 -26 -40 c-14 -21 -29 -39 -33 -39 -4 0 -24 16 -45 35 -40
36 -55 37 -55 4 0 -12 -7 -19 -19 -19 -10 0 -24 -7 -31 -15 -7 -8 -10 -15 -8
-15 13 0 124 -23 130 -27 5 -2 1 -18 -8 -34 -11 -22 -19 -28 -27 -21 -7 6 -45
14 -85 17 -66 7 -75 11 -102 42 -39 44 -43 91 -12 127 49 55 159 62 257 15z
m3802 -40 c135 -18 457 -90 472 -105 8 -7 13 -15 10 -18 -2 -2 -65 9 -139 25
-74 16 -209 43 -300 60 -218 41 -246 66 -43 38z m-997 -494 c13 -402 28 -568
86 -920 3 -24 2 -26 -5 -10 -12 29 -58 288 -77 440 -12 95 -17 234 -19 515 -3
437 0 432 15 -25z m2360 219 c-11 -54 -31 -171 -45 -258 -13 -87 -27 -162 -31
-165 -9 -9 6 183 22 273 13 78 64 259 71 253 2 -2 -6 -48 -17 -103z m-4865
-230 c47 -23 69 -44 130 -122 5 -7 20 -23 33 -34 12 -12 22 -27 22 -33 0 -38
-200 -165 -296 -188 -152 -37 -271 -45 -367 -26 -53 11 -55 12 -43 33 8 12 16
64 19 119 8 148 43 197 177 245 76 28 84 30 183 31 76 1 95 -3 142 -25z m3985
-259 c151 -10 153 -11 225 -82 65 -64 85 -104 85 -167 0 -30 0 -29 -28 15 -37
57 -157 169 -207 194 -59 29 -168 31 -307 6 -64 -12 -121 -21 -125 -20 -4 0
33 15 82 34 65 24 103 32 135 30 25 -2 88 -6 140 -10z m-3813 -85 c-8 -97 -82
-208 -169 -255 -70 -38 -196 -47 -296 -20 -59 16 -75 26 -133 84 -36 36 -71
76 -77 88 l-12 22 108 -6 c59 -3 142 0 185 6 74 10 81 10 108 -10 73 -51 153
-26 165 52 4 21 10 39 14 39 4 0 19 11 33 24 35 32 59 46 71 39 4 -3 6 -31 3
-63z m-1317 -56 l35 -14 -32 3 c-18 2 -33 0 -33 -5 0 -15 54 -21 102 -9 81 18
147 14 185 -11 48 -34 47 -44 -4 -39 -64 5 -77 -15 -15 -22 27 -3 71 -16 97
-28 47 -22 50 -26 94 -129 6 -14 24 -43 41 -65 36 -47 51 -112 29 -126 -26
-16 -253 -88 -359 -114 -94 -22 -112 -24 -191 -15 -130 15 -123 8 -115 109 4
47 10 165 12 261 3 101 10 180 16 187 11 13 61 31 88 31 8 0 31 -6 50 -14z
m5979 -131 c-1 -39 -3 -50 -8 -34 -6 24 -3 91 5 91 2 0 4 -26 3 -57z m-5433
-365 c24 -17 44 -35 44 -40 0 -13 -40 -9 -40 5 -1 6 -7 -2 -14 -19 -18 -42
-36 -52 -36 -21 0 13 -9 32 -19 41 -19 17 -19 16 -14 -22 4 -32 1 -44 -16 -61
-11 -11 -32 -21 -46 -21 -22 0 -25 4 -25 33 0 23 -8 41 -25 57 l-26 24 76 22
c42 12 79 25 82 28 10 9 12 8 59 -26z m-225 -49 c28 -14 42 -55 28 -80 -8 -15
-19 -19 -46 -17 -40 3 -68 32 -45 47 10 6 10 10 -3 21 -27 22 -20 29 38 39 5
0 17 -4 28 -10z m488 -154 c7 -72 15 -138 17 -147 3 -11 0 -18 -8 -18 -8 0
-36 -14 -63 -31 -79 -50 -92 -53 -121 -24 -32 32 -31 75 4 146 38 78 146 229
153 215 4 -6 12 -69 18 -141z m-574 125 c3 -11 3 -25 -1 -31 -3 -6 4 -25 16
-41 18 -25 20 -32 9 -40 -87 -58 -170 -69 -213 -29 -31 30 -32 39 -5 49 19 7
19 9 5 21 -36 30 -19 45 72 67 112 28 110 28 117 4z m-363 -30 c-6 -38 -30
-90 -41 -90 -12 0 -14 41 -5 89 5 25 11 31 28 29 16 -2 20 -9 18 -28z m112 10
c29 0 31 -2 31 -38 -1 -37 -1 -37 -40 -36 -22 0 -51 3 -66 7 -22 6 -25 11 -21
43 4 34 6 36 34 30 17 -3 45 -6 62 -6z m96 -163 c12 -4 11 -6 -3 -6 -27 -1
-57 18 -57 36 0 14 3 13 23 -4 12 -11 29 -23 37 -26z m87 -3 c-3 -3 -12 -4
-19 -1 -8 3 -5 6 6 6 11 1 17 -2 13 -5z"/>
<path d="M10435 11068 c-32 -4 -74 -13 -93 -19 -41 -14 -104 -90 -146 -179
-32 -67 -38 -129 -27 -275 3 -29 -5 -90 -17 -145 -12 -52 -29 -162 -38 -245
-12 -125 -13 -168 -3 -257 7 -60 16 -108 20 -108 4 0 10 -13 14 -30 12 -55 27
-46 20 12 l-7 55 59 62 c40 42 64 60 75 56 9 -3 31 3 49 14 24 15 35 17 40 9
5 -7 50 -15 111 -19 68 -5 129 -16 179 -32 107 -36 200 -51 283 -44 79 6 222
45 303 82 64 29 163 93 163 106 0 16 -20 10 -54 -16 -30 -23 -115 -64 -162
-79 l-21 -6 18 52 c24 70 34 185 20 222 -7 16 -10 30 -8 32 3 4 81 -57 141
-111 21 -19 41 -35 43 -35 2 0 16 -12 31 -26 15 -14 49 -36 75 -50 38 -20 55
-23 85 -17 20 4 42 6 49 5 11 -2 31 46 22 51 -2 1 -17 11 -34 23 -16 11 -59
37 -95 56 -36 19 -104 61 -152 92 -49 32 -116 70 -150 86 -60 27 -209 73 -293
90 -37 8 -145 0 -230 -16 -31 -6 -35 -4 -35 15 0 35 25 84 60 119 l34 32 115
0 c188 0 478 -27 583 -55 212 -55 370 -163 488 -334 42 -60 55 -67 82 -41 18
16 20 27 15 72 -7 72 -66 240 -119 340 -63 120 -128 181 -268 254 -219 113
-357 158 -581 190 -123 17 -538 25 -644 12z m595 -59 c165 -26 253 -49 445
-116 245 -85 306 -120 384 -221 33 -43 103 -214 115 -282 l6 -35 -15 30 c-8
17 -28 72 -45 123 -49 143 -118 225 -245 289 -50 26 -335 125 -435 152 -179
48 -316 65 -515 65 -104 -1 -185 1 -180 3 77 26 290 23 485 -8z m-431 -751
c-14 -27 -18 -148 -6 -195 l9 -33 -87 0 -86 0 7 38 c4 20 9 42 13 49 8 15 150
163 157 163 2 0 -1 -10 -7 -22z m492 -48 c28 -16 28 -105 -1 -120 -12 -6 -30
-8 -40 -5 -36 12 -21 135 16 135 3 0 14 -5 25 -10z"/>
<path d="M9142 9270 c-64 -39 -130 -127 -157 -210 -40 -119 -15 -212 81 -299
84 -77 167 -95 248 -53 35 17 90 12 173 -18 100 -36 150 -42 253 -30 52 7 129
23 170 37 112 39 146 43 204 26 28 -9 69 -15 90 -14 53 1 180 63 221 107 59
62 61 172 5 253 -44 62 -80 90 -155 117 -51 19 -71 21 -111 15 -31 -6 -39 -9
-21 -10 43 -2 150 -40 174 -63 72 -67 67 -225 -9 -281 -21 -15 -39 -19 -85
-17 -184 10 -216 7 -284 -29 -140 -75 -158 -82 -210 -87 -59 -6 -52 -9 -226
91 l-88 50 -127 -3 c-146 -2 -147 -2 -195 95 -21 43 -25 63 -21 106 7 73 42
158 84 201 39 40 35 46 -14 16z m764 -546 c-88 -30 -102 -30 -51 0 24 15 56
24 80 24 38 1 37 0 -29 -24z"/>
<path d="M12488 8270 l-33 -29 37 10 c113 30 230 -87 194 -192 -16 -45 -6 -50
23 -13 25 32 27 89 6 141 -20 48 -41 71 -87 94 -55 28 -101 25 -140 -11z"/>
<path d="M9933 1119 c-87 -45 -99 -54 -86 -62 15 -9 173 72 173 88 0 20 2 21
-87 -26z"/>
<path d="M8906 729 c-37 -29 -35 -70 5 -103 33 -28 59 -32 89 -16 34 18 42 46
26 84 -24 57 -73 72 -120 35z m36 -16 c26 -24 23 -53 -6 -53 -33 0 -50 23 -36
49 13 25 18 26 42 4z"/>
<path d="M8710 632 c0 -46 72 -69 103 -34 33 37 16 52 -59 52 -36 0 -44 -3
-44 -18z"/>
<path d="M11077 1933 c-8 -7 44 -42 55 -37 3 2 4 13 1 24 -5 19 -42 28 -56 13z"/>
<path d="M11205 1869 c-7 -11 22 -49 37 -49 15 0 8 48 -8 54 -21 8 -22 8 -29
-5z"/>
<path d="M10817 1756 c-170 -72 -237 -167 -267 -386 -10 -68 -9 -76 7 -90 10
-8 27 -36 36 -61 50 -133 187 -219 344 -219 130 1 235 42 321 127 96 95 140
249 93 328 -11 20 -21 50 -21 66 0 24 -6 32 -29 40 -19 7 -33 21 -40 39 -16
46 -88 117 -150 147 -45 21 -73 27 -146 30 -78 3 -98 0 -148 -21z m273 -35
c61 -27 103 -67 130 -121 12 -25 25 -52 29 -60 5 -8 18 -14 30 -12 68 10 -26
-74 -153 -136 -197 -98 -316 -130 -438 -118 -100 9 -108 15 -108 84 0 34 11
91 27 142 23 72 34 92 76 133 50 49 101 80 171 103 57 19 179 11 236 -15z
m231 -300 c8 -28 8 -51 0 -90 -24 -114 -85 -190 -197 -247 -66 -33 -88 -40
-155 -43 -92 -4 -174 17 -239 61 -44 29 -102 95 -116 132 -6 16 -5 17 16 6 43
-23 201 -8 307 29 l92 32 20 -20 c44 -44 150 -35 190 16 24 30 26 48 8 83 -12
23 -11 27 17 52 17 15 34 27 38 28 4 0 12 -17 19 -39z"/>
<path d="M11128 1435 c-26 -14 -49 -29 -53 -35 -12 -19 35 -10 74 15 75 47 59
62 -21 20z"/>
<path d="M11285 1770 c-7 -11 8 -42 28 -59 12 -9 16 -8 21 4 10 28 -35 78 -49
55z"/>
<path d="M10371 1207 c-33 -16 -83 -103 -89 -154 -6 -52 19 -98 49 -90 12 3
20 -1 24 -14 9 -27 67 -59 109 -59 53 0 96 44 96 97 0 28 6 42 21 51 18 11 21
20 16 54 -7 50 -23 67 -71 75 -21 3 -49 17 -62 29 -26 27 -56 30 -93 11z m164
-79 c26 -11 42 -48 31 -67 -4 -6 -34 -13 -68 -17 -37 -4 -82 -18 -115 -36 -29
-16 -58 -26 -63 -23 -14 8 -12 64 3 99 12 26 18 29 64 32 29 1 60 7 70 13 24
14 46 14 78 -1z m-60 -118 c-4 -6 -10 -8 -15 -5 -5 3 -16 -5 -25 -17 -13 -19
-17 -21 -25 -8 -10 17 -4 26 25 33 35 8 46 7 40 -3z"/>
</g>
</svg>
